<svg width="65" height="18" viewBox="0 0 65 18" fill="none" xmlns="http://www.w3.org/2000/svg">
<path d="M50.7357 16.8395C49.4024 16.0741 48.39 14.9877 47.674 13.6049C46.9332 12.2222 46.5876 10.6667 46.5876 8.88889C46.5876 7.23457 46.8592 5.7284 47.4518 4.37037C48.0197 3.03704 48.8592 1.97531 49.9703 1.18519C51.0814 0.395062 52.4147 0 53.9456 0C55.3036 0 56.4888 0.320988 57.4765 0.962964C58.4641 1.60494 59.2295 2.46914 59.7728 3.60494C60.2913 4.74074 60.5629 6.04938 60.5629 7.53087C60.5629 7.75309 60.5382 8.09877 60.5135 8.54321L60.39 9.82716H49.4518C49.6493 11.5062 50.2419 12.8148 51.2789 13.7531C52.2913 14.6914 53.6493 15.1605 55.3283 15.1605C57.2049 15.1605 58.6616 14.6173 59.6987 13.5309C60.711 12.4444 61.2542 10.9136 61.3036 8.93827L64.1184 9.01235C64.069 10.8148 63.674 12.3951 62.9579 13.7284C62.2172 15.0864 61.2049 16.1235 59.9209 16.8642C58.6123 17.6049 57.0814 17.9753 55.3283 17.9753C53.5999 17.9753 52.0691 17.6049 50.7357 16.8395ZM56.6616 3.95062C56.0197 3.20988 55.1061 2.81482 53.9456 2.81482C52.7357 2.81482 51.7728 3.18519 51.0567 3.92593C50.316 4.66667 49.8221 5.67901 49.5752 7.01235H57.7234C57.6493 5.7284 57.3036 4.71605 56.6616 3.95062Z" fill="#E8E8E8"/>
<path d="M34.7014 17.2346C33.5903 16.716 32.7014 15.9753 32.0347 15.037C31.3681 14.0988 30.9977 13.0123 30.8989 11.7531L33.7137 11.5062C33.8125 12.6667 34.2816 13.5802 35.1211 14.2222C35.9606 14.8642 37.0718 15.1852 38.4792 15.1852C39.7384 15.1852 40.7014 14.9877 41.3927 14.5432C42.0594 14.0988 42.4051 13.4815 42.4051 12.6914C42.4051 12.0988 42.1582 11.6049 41.7137 11.2099C41.2693 10.8148 40.6026 10.5185 39.7631 10.3704L36.9977 9.87654C33.5409 9.28395 31.8125 7.62963 31.8125 4.8642C31.8125 3.90123 32.0594 3.06173 32.5779 2.32099C33.0964 1.58025 33.8125 1.01235 34.7508 0.617285C35.689 0.222222 36.7508 0 37.9853 0C39.9113 0 41.4668 0.54321 42.7014 1.58025C43.936 2.64197 44.6273 4.07407 44.8002 5.87654L41.9853 6.12346C41.8866 5.06173 41.4915 4.22222 40.8002 3.60494C40.1088 3.01235 39.1705 2.69136 37.9853 2.69136C36.9236 2.69136 36.1088 2.91358 35.5162 3.30864C34.9236 3.7037 34.6273 4.22222 34.6273 4.8642C34.6273 5.50617 34.8248 5.97531 35.2446 6.32099C35.6643 6.66667 36.4051 6.91358 37.4915 7.11111L40.2569 7.60494C41.7631 7.90123 42.973 8.49383 43.8619 9.40741C44.7508 10.321 45.2199 11.4074 45.2199 12.6914C45.2199 13.7778 44.9236 14.7161 44.3804 15.5062C43.8125 16.2963 43.0224 16.9136 42.01 17.358C40.9977 17.8025 39.8125 18 38.4792 18C37.0718 18 35.8125 17.7531 34.7014 17.2346Z" fill="#E8E8E8"/>
<path d="M24.6682 0.34568L31.0386 17.6296H28.0756L25.6065 11.0123H19.9522L17.6559 17.6296H14.6682L20.7176 0.34568H24.6682ZM22.6929 3.1605L20.9398 8.19753H24.5694L22.6929 3.1605Z" fill="#E8E8E8"/>
<path d="M7.90123 0.34568C8.93827 0.34568 9.87654 0.567903 10.716 0.962965C11.5556 1.35803 12.1975 1.92593 12.6667 2.64198C13.1358 3.35803 13.3827 4.14815 13.3827 5.03704C13.3827 5.67901 13.2593 6.2963 13.037 6.83951C12.8148 7.40741 12.5185 7.90124 12.1235 8.2963C12.6667 8.79012 13.0617 9.35803 13.358 10.0247C13.6543 10.7161 13.8025 11.4568 13.8025 12.2716C13.8025 13.358 13.5556 14.2963 13.0617 15.1111C12.5679 15.9259 11.8765 16.5432 10.9877 16.9877C10.0988 17.4321 9.06173 17.6296 7.87654 17.6296H0V0.34568H7.90123ZM9.97531 6.44445C10.3704 6.12346 10.5679 5.65432 10.5679 5.03704C10.5679 4.49383 10.321 4.02469 9.82716 3.67901C9.33333 3.33333 8.69136 3.1605 7.90123 3.1605H2.81481V6.93827H8.2963C9.03704 6.93827 9.58025 6.79013 9.97531 6.44445ZM10.1975 14.1728C10.716 13.7531 10.9877 13.1111 10.9877 12.2716C10.9877 11.5062 10.7407 10.8889 10.2716 10.4444C9.77778 10 9.1358 9.75309 8.2963 9.75309H2.81481V14.8148H7.87654C8.91358 14.8148 9.67901 14.6173 10.1975 14.1728Z" fill="#E8E8E8"/>
</svg>
